<svg id="window" xmlns="http://www.w3.org/2000/svg" viewBox="0 200 1365.66 740">
  <title>window</title>
  <g>
    <path d="M688.25-64C431.58-64,223.5,144.08,223.5,400.75S431.58,865.5,688.25,865.5,1153,657.42,1153,400.75,944.92-64,688.25-64Zm198.5,781.09H488L288.64,388.17,488,59.24H886.75l199.37,328.93Z" transform="translate(0.66 190.23)"/>
    <g>
      <path class="cls-1" d="M688.25-65.5A466.13,466.13,0,0,0,298.39,656.57a466.77,466.77,0,0,0,500.3,197.27A466,466,0,0,0,1151.36,455a470.45,470.45,0,0,0-6.19-147.53A466.1,466.1,0,0,0,759.3-60.11a476.26,476.26,0,0,0-71-5.39,1.5,1.5,0,0,0,0,3,463.14,463.14,0,0,1,387.27,717.55A463.73,463.73,0,0,1,577.95,850.79,463,463,0,0,1,228,453.68a467.89,467.89,0,0,1,6.37-146A463.19,463.19,0,0,1,616.64-57a470.5,470.5,0,0,1,71.61-5.49A1.5,1.5,0,0,0,688.25-65.5Z" transform="translate(0.66 190.23)"/>
      <path class="cls-1" d="M886.75,715.59H493.88c-1.41,0-2.9-.14-4.3,0-.63.06-2.28-.35-.93.37s.12-.36-.2-1c-.63-1.32-1.55-2.56-2.31-3.81l-8.81-14.54L405.89,578.7,323,441.88l-26.2-43.23c-2-3.24-3.71-7-6-10-1.46-1.87.28-.69-.77.24.4-.35.62-1.09.92-1.52,6.46-9,11.67-19.26,17.41-28.73l34.12-56.29L428.1,161l58.19-96a36.66,36.66,0,0,0,2.31-3.82c.89-2,.73-.05-.58-.42,1.83.51,4.53,0,6.4,0h387a24,24,0,0,0,4,0c2-.37.53.84,0-.73.63,1.93,2.4,4,3.44,5.68l59.45,98.08,85.85,141.64,33.21,54.8,11,18.14c1.79,2.95,3.41,7,5.78,9.53,1.46,1.56-.59.54.62-.44a7.17,7.17,0,0,0-1,1.7l-6.39,10.55-27.18,44.84L967.09,581.65,896.52,698.08l-11.06,18.25c-1,1.66,1.59,3.16,2.59,1.51l19.78-32.64,47.52-78.4,57.78-95.33,49.73-82.05,16.34-27c2.48-4.09,6.11-8.48,7.86-13a4.07,4.07,0,0,1,.35-.57,1.5,1.5,0,0,0,0-1.51l-42.59-70.26L959.32,176.07,894.26,68.73c-2.08-3.43-4.47-10.8-8.94-11-10.69-.46-21.5,0-32.19,0H499.94c-3.92,0-11.49-1.76-13.93,1.9-6,9-11.26,18.57-16.86,27.81l-33.75,55.68L349.28,285.23l-58.91,97.2-3,5a1.5,1.5,0,0,0,0,1.51l20.6,34,49.43,81.55,58.81,97,49.59,81.82L481,708.39c1.63,2.68,3.34,7.35,5.73,9.46,2.06,1.82,7.41.75,9.95.75H886.75A1.5,1.5,0,0,0,886.75,715.59Z" transform="translate(0.66 190.23)"/>
    </g>
  </g>
  <g>
    <path d="M791.85,194.5H573.19L463.86,383.86,573.19,573.23H791.85L901.18,383.86ZM683,535.5A151.5,151.5,0,1,1,834.5,384,151.5,151.5,0,0,1,683,535.5Z" transform="translate(0.66 190.23)"/>
    <g>
      <path class="cls-1" d="M791.85,193H573.19a1.51,1.51,0,0,0-1.3.74l-37,64-58.88,102-13.49,23.37a1.52,1.52,0,0,0,0,1.51L500,449.45l59.09,102.34L567.83,567c1.17,2,2.29,5.17,4,6.85,1.23,1.24,2.51.93,4.22.93H758.8c10.48,0,21.06.43,31.54,0,.5,0,1,0,1.51,0a1.51,1.51,0,0,0,1.3-.74l37-64L889,408l13.49-23.37a1.52,1.52,0,0,0,0-1.51l-37-64-58.88-102-13.49-23.37a1.5,1.5,0,0,0-2.59,1.51L859.08,314l36.32,62.91a60.24,60.24,0,0,0,3.73,6.45c.23.3.37,1,.68,1.18-.63-.46.77-1.43-.17-1s-2.29,4-2.85,4.94l-5.66,9.8-84.23,145.9-13.42,23.24c-.57,1-2.75,3.54-2.73,4.72,0,.89.86-.45,1-.41-.4-.17-1.12,0-1.55,0-6.71-.73-13.91,0-20.66,0H576.4a8.48,8.48,0,0,0-2.35,0c-1.49.54-.08-.85.44.74a18.47,18.47,0,0,0-1.81-3.13l-12-20.83-43.33-75-41.61-72.08c-3.17-5.49-5.93-12.15-9.89-17.12-.24-.3-.34-.8-.62-1.07,1.71,1.61-.89,1.55.25.91s2.35-4.07,3-5.17l80.48-139.39,17.38-30.1,5.45-9.43c.67-1.16,2.41-3.13,2.6-4.5.12-.84-1.56.26-.93.49a7.18,7.18,0,0,0,1.69,0c2.62.17,5.31,0,7.93,0H791.85A1.5,1.5,0,0,0,791.85,193Z" transform="translate(0.66 190.23)"/>
      <path class="cls-1" d="M683,534c-62.46-.28-119.72-39.93-141.06-98.86S539,308.77,587.06,268.68c48.49-40.48,119.5-45.78,173.53-13.08,53.62,32.46,81.91,96.72,69.45,158.2-12.28,60.59-62.23,108.55-123.27,118.33A154.48,154.48,0,0,1,683,534a1.5,1.5,0,0,0,0,3c63.62-.29,121.77-40.56,143.72-100.43,22.14-60.37,3-130.12-46.68-170.84C730.51,225.13,658.76,219.8,603.9,253s-83.54,98.77-70.83,161.59c12.49,61.73,63.8,110.85,126,120.54A159.91,159.91,0,0,0,683,537,1.5,1.5,0,0,0,683,534Z" transform="translate(0.66 190.23)"/>
    </g>
  </g>
  <rect class="cls-2" x="434.44" y="98.85" width="193.66" height="60.53" transform="translate(378.11 -205.3) rotate(60)"/>
  <rect class="cls-2" x="734.57" y="615.48" width="199.18" height="48.41" transform="matrix(0.54, 0.84, -0.84, 0.54, 921.75, -217.68)"/>
  <rect class="cls-2" x="739.86" y="108.55" width="189.24" height="56.95" transform="translate(1399.4 -302.6) rotate(122.53)"/>
  <rect class="cls-2" x="435.03" y="614.73" width="198.21" height="51.05" transform="translate(1356.33 688.04) rotate(120)"/>
  <rect class="cls-2" x="284.16" y="550.2" width="200.94" height="48.47"/>
  <rect class="cls-2" x="880.16" y="553.1" width="210" height="50.66"/>
  <g>
    <path d="M1022.83-188.5H341.5L.84,401,341.5,990.5h681.33L1363.5,401Zm-28.17,1092h-612L76.71,401l306-502.5h612l306,502.5Z" transform="translate(0.66 190.23)"/>
    <g>
      <path class="cls-1" d="M1022.83-190H351.05c-2.69,0-6-.52-8.63,0-3.74.73-5.42,6.3-7.26,9.47l-21,36.26L237-10.71,138.69,159.45,50.24,312.51,1.82,396.3l-2.28,3.94a1.52,1.52,0,0,0,0,1.51l20,34.62,51,88.28L140,644.87l74.34,128.65L281,888.78l46.11,79.79,11.13,19.26c1.37,2.37,1.7,3.74,4.37,4.17,5.37.85,11.59,0,17,0h646.06c5.06,0,11.25,1,16.24,0,2.62-.51,3-2.12,4.37-4.47l31.33-54.22,58.18-100.68,72.53-125.51,73.28-126.81,61.67-106.72,36.56-63.26,5-8.57a1.52,1.52,0,0,0,0-1.51l-33.92-58.69-81.44-140.92L1151.28,30.77l-85.17-147.39L1038-165.33c-4.2-7.27-7.89-16.42-13.25-22.93a7.37,7.37,0,0,1-.58-1,1.5,1.5,0,0,0-2.59,1.51l19.83,34.32L1092-65.82,1160.69,53l74.37,128.69L1301.65,297l46.58,80.61,11.63,20.13c.73,1.26,1.47,2.5,2.18,3.77-.4-.72.91-1.5-.48-.12-3.65,3.62-6.1,10.56-8.65,15l-17.47,30.24-54.67,94.6L1209.9,663.8l-73.65,127.45L1072,902.45l-41.51,71.83c-2.54,4.39-6.92,9.62-8.39,14.51-.54,1.81.46.21.31.21h-671c-2.48,0-5-.16-7.51,0-2.31.15-2.3-.75-1.12.72-2.28-2.85-3.87-6.7-5.69-9.84l-37.45-64.8L237.72,807.9,164.63,681.44,92.89,557.28,35,457.09,4.23,403.87c-.66-1.14-1.45-2.28-2-3.48.65,1.39-.62,1.53.74-.07C6.67,396,9.19,389.56,12,384.61L54.6,311l64.84-112.2L193.2,71.13l70.51-122,53.85-93.19,16.89-29.22c2.56-4.43,6-9,7.95-13.75.63-1.55-1.49,0-.28,0,1.69.13,3.44,0,5.14,0h675.58A1.5,1.5,0,0,0,1022.83-190Z" transform="translate(0.66 190.23)"/>
      <path class="cls-1" d="M994.67,902H417.32c-11.49,0-23.15.58-34.62,0,1.72.09,1.26,1,.13-1.17-1.06-2-2.37-3.89-3.54-5.82L366,873.17l-46.44-76.26L256.63,693.6,189.2,582.85l-60-98.54L88.56,417.59c-3.09-5.07-5.94-10.41-9.31-15.29-1.46-2.12-.41-2.07-1.25-.54.4-.73.87-1.42,1.3-2.13l26.6-43.69,51.9-85.23L223.37,163,290,53.62l56-92L379.45-93.3c1.13-1.85,2.42-3.68,3.41-5.61,1.1-2.11,1.53-1.17-.16-1.09,3.21-.15,6.47,0,9.68,0H986c2.17,0,4.4.15,6.56,0,2.32-.16,1.89.71.86-.74,1.86,2.61,3.38,5.56,5.05,8.3l34.47,56.6L1089.44,57l66.77,109.65,65,106.81,51.35,84.34,16.81,27.61c2.93,4.81,5.58,10.08,8.91,14.63,1.41,1.93.21,1.66,1,.21-.48.85-1,1.67-1.53,2.5L1288,418.85l-41.33,67.88-60.38,99.15-67.47,110.8-62.61,102.82-46,75.47-16.91,27.76c-1,1.65,1.59,3.16,2.59,1.51l30.45-50,73.12-120.08L1188,588.92l76.42-125.5,25-41.09c3.83-6.28,9.19-12.88,12-19.7a6.84,6.84,0,0,1,.53-.87,1.5,1.5,0,0,0,0-1.51l-18.33-30.1-46.91-77L1173.34,189l-67.71-111.2L1045.45-21l-39.91-65.54c-2.88-4.73-5.62-9.6-8.67-14.23-1.35-2-2.09-2.23-4.52-2.24-16.51-.09-33,0-49.54,0H401.58c-5.62,0-11.28-.19-16.9,0-2.41.08-3,.4-4.32,2.44-8.93,14-17.28,28.38-25.91,42.55L302.73,26.94,237.3,134.38,170,244.91l-56.39,92.6L79.94,392.8l-4.53,7.44a1.5,1.5,0,0,0,0,1.51l31.86,52.33,75.66,124.25,90.63,148.84L349.33,851.6l23.32,38.29,6.42,10.55c.63,1,1.36,3,2.33,3.82,3,2.41,11.5.75,15,.75H994.67A1.5,1.5,0,0,0,994.67,902Z" transform="translate(0.66 190.23)"/>
    </g>
  </g>
</svg>
