<svg id="space-ship" xmlns="http://www.w3.org/2000/svg" viewBox="0 0 345 661">
  <title>space-ship</title>
  <g>
    <path d="M661.28,558.5,631,376.5h2.65l-3-1a173.52,173.52,0,0,1-86.16-61.43A170.56,170.56,0,0,1,510.5,211.5c0-94.84,77.16-172,172-172s172,77.16,172,172a170.56,170.56,0,0,1-33.94,102.6,173.52,173.52,0,0,1-86.16,61.43l-3.09,1H734l-30.31,182Z" transform="translate(-510 -39)"/>
    <path class="cls-1" d="M682.5,40A171.51,171.51,0,0,1,820.16,313.8,171.84,171.84,0,0,1,734.25,375l-6.18,2h5.37L703.3,558H661.7L631.56,377h5.37l-6.18-2A171.52,171.52,0,0,1,682.5,40m0-1a172.52,172.52,0,0,0-52.05,337h-.07l30.48,183h43.29l30.48-183h-.07A172.52,172.52,0,0,0,682.5,39Z" transform="translate(-510 -39)"/>
  </g>
  <g>
    <rect x="31.5" y="405.5" width="284" height="31"/>
    <path class="cls-1" d="M825,445v30H542V445H825m1-1H541v32H826V444Z" transform="translate(-510 -39)"/>
  </g>
  <g>
    <polygon points="39.24 660.5 19.54 368.33 86.09 368.33 66.38 660.5 39.24 660.5"/>
    <path class="cls-1" d="M595.55,407.83,575.92,699H549.71L530.07,407.83h65.48m1.07-1H529L548.77,700h28.08l19.77-293.17Z" transform="translate(-510 -39)"/>
  </g>
  <g>
    <polygon points="278.24 660.5 258.54 368.33 325.09 368.33 305.38 660.5 278.24 660.5"/>
    <path class="cls-1" d="M834.55,407.83,814.92,699H788.71L769.07,407.83h65.48m1.07-1H768L787.77,700h28.08l19.77-293.17Z" transform="translate(-510 -39)"/>
  </g>
</svg>
